<?xml version="1.0" standalone="no"?>
<!DOCTYPE svg PUBLIC "-//W3C//DTD SVG 20010904//EN"
 "http://www.w3.org/TR/2001/REC-SVG-20010904/DTD/svg10.dtd">
<svg version="1.0" xmlns="http://www.w3.org/2000/svg"
 width="1020.000000pt" height="1010.000000pt" viewBox="0 0 1020.000000 1010.000000"
 preserveAspectRatio="xMidYMid meet">

<g transform="translate(0.000000,1010.000000) scale(0.100000,-0.100000)"
fill="#000000" stroke="none">
<path d="M4660 7039 c-82 -21 -133 -55 -165 -110 -16 -27 -21 -57 -23 -145
l-4 -111 -57 -17 c-31 -10 -95 -36 -143 -58 l-88 -41 -67 65 c-84 80 -123 102
-188 102 -163 0 -456 -291 -455 -453 1 -65 28 -117 103 -190 l65 -63 -38 -82
c-21 -44 -49 -111 -62 -148 l-23 -68 -103 0 c-82 0 -110 -4 -141 -20 -96 -49
-136 -154 -136 -360 0 -112 4 -147 23 -207 42 -135 98 -172 257 -173 l100 0
23 -67 c13 -38 41 -105 62 -149 l38 -82 -69 -68 c-86 -85 -103 -118 -97 -194
12 -169 288 -440 448 -440 67 0 115 25 188 100 33 33 64 60 69 60 6 0 48 -17
94 -39 46 -21 110 -47 142 -57 l57 -18 0 -90 c0 -107 11 -154 47 -196 36 -43
86 -66 187 -87 70 -14 85 -20 80 -33 -19 -42 -54 -201 -60 -268 -7 -95 9 -207
34 -241 40 -55 78 -71 167 -71 229 0 457 95 622 258 130 130 1442 1600 1462
1640 44 87 38 209 -14 292 -31 49 -246 244 -300 272 -22 11 -62 24 -89 27 -47
6 -49 7 -61 48 -18 61 -51 109 -93 135 -31 19 -55 24 -151 28 l-113 5 -32 90
c-18 50 -45 114 -60 144 l-27 53 64 67 c71 73 93 110 103 167 17 108 -118 300
-288 411 -150 98 -216 93 -340 -25 l-78 -75 -69 32 c-38 18 -105 45 -148 60
l-78 29 -5 114 c-4 103 -8 119 -32 155 -49 75 -168 112 -353 112 -77 0 -133
-6 -185 -20z m310 -202 l45 -12 5 -132 c5 -130 5 -132 35 -163 19 -20 49 -36
85 -46 95 -26 192 -65 286 -115 93 -50 128 -58 167 -38 12 6 59 48 104 92 l82
81 36 -17 c48 -23 130 -100 171 -161 l33 -50 -88 -91 c-121 -125 -121 -128
-37 -298 36 -73 77 -171 90 -219 43 -150 55 -158 224 -158 67 0 123 -3 125 -7
3 -5 8 -22 11 -39 6 -29 -24 -65 -715 -832 l-721 -802 -48 0 c-57 0 -150 18
-167 32 -9 7 -13 47 -13 135 l0 125 -32 32 c-26 25 -53 37 -122 55 -55 15
-138 49 -214 87 -125 64 -164 74 -205 53 -12 -6 -59 -48 -104 -92 l-83 -81
-32 19 c-62 36 -110 80 -154 141 -24 34 -44 66 -44 71 0 4 34 42 76 83 124
123 128 146 55 283 -45 83 -100 226 -116 301 -3 16 -21 44 -40 63 l-33 33
-131 0 -130 0 -12 43 c-7 23 -13 80 -13 127 0 47 6 104 13 128 l12 42 126 0
c119 0 128 1 159 25 26 20 38 41 54 98 31 105 66 191 116 284 32 60 44 94 44
124 0 39 -6 48 -92 136 l-92 93 19 33 c35 61 79 110 138 154 33 23 66 43 75
43 8 0 46 -33 83 -74 69 -74 117 -106 161 -106 13 0 80 29 149 64 74 37 162
73 215 87 59 15 99 32 119 50 l30 27 5 139 5 138 50 11 c65 15 178 16 235 1z
m1672 -1584 c174 -152 194 -177 184 -219 -7 -28 -115 -149 -132 -149 -11 0
-296 250 -302 265 -1 3 28 38 65 78 86 91 107 94 185 25z m-217 -428 c61 -54
114 -101 118 -105 10 -8 -1001 -1135 -1018 -1135 -13 0 -304 257 -302 267 1 4
231 262 511 573 l509 566 36 -34 c20 -18 86 -78 146 -132z m-1200 -1270 c77
-69 141 -130 143 -134 4 -11 -69 -70 -128 -104 -61 -34 -152 -64 -226 -72
l-61 -7 -7 36 c-12 66 18 214 62 301 25 49 62 105 70 105 4 0 70 -56 147 -125z"/>
<path d="M4675 6144 c-390 -86 -664 -447 -642 -844 40 -701 863 -1033 1384
-557 71 65 134 155 182 259 52 110 75 218 74 343 -2 365 -232 671 -588 785
-93 30 -306 37 -410 14z m345 -220 c196 -58 347 -207 416 -414 26 -77 26 -263
0 -340 -59 -175 -167 -301 -321 -374 -95 -46 -163 -61 -270 -60 -227 2 -436
133 -533 334 -23 47 -46 105 -51 130 -16 68 -13 227 4 294 56 213 243 392 460
440 83 19 214 14 295 -10z"/>
</g>
</svg>
