<?xml version="1.0" standalone="no"?>
<!DOCTYPE svg PUBLIC "-//W3C//DTD SVG 20010904//EN"
 "http://www.w3.org/TR/2001/REC-SVG-20010904/DTD/svg10.dtd">
<svg version="1.0" xmlns="http://www.w3.org/2000/svg"
 width="1210.000000pt" height="1202.000000pt" viewBox="0 0 1210.000000 1202.000000"
 preserveAspectRatio="xMidYMid meet">

<g transform="translate(0.000000,1202.000000) scale(0.100000,-0.100000)"
fill="#000000" stroke="none">
<path d="M5309 8402 c-78 -21 -151 -66 -212 -131 -56 -60 -83 -112 -106 -204
l-17 -72 -110 -6 c-67 -4 -124 -13 -149 -23 -75 -32 -129 -100 -154 -194 l-12
-42 -314 0 c-289 0 -318 -2 -368 -20 -69 -26 -122 -81 -147 -153 -20 -56 -20
-83 -20 -1904 0 -1837 1 -1848 21 -1893 26 -58 72 -105 134 -138 l50 -27 1510
0 c1453 0 1512 1 1564 19 68 24 132 85 156 152 14 38 19 88 23 229 l4 181 66
21 c437 137 785 530 883 996 29 133 31 377 6 513 -34 187 -123 397 -232 548
-50 70 -55 81 -41 94 11 11 34 15 88 13 193 -6 355 91 437 262 61 126 61 124
-1 136 -29 6 -84 15 -123 21 -119 19 -112 14 -125 72 -32 151 -53 228 -62 228
-27 0 -142 -65 -189 -107 -114 -103 -166 -228 -156 -375 5 -78 -3 -118 -23
-118 -5 0 -42 24 -84 54 -94 67 -254 150 -360 186 l-81 27 -6 384 c-4 329 -8
391 -22 430 -24 63 -68 113 -124 141 -47 22 -57 23 -377 28 l-328 5 -23 62
c-50 139 -121 185 -298 191 -106 4 -107 4 -113 31 -29 127 -63 197 -133 268
-81 82 -208 134 -325 132 -22 0 -70 -8 -107 -17z m216 -221 c43 -19 100 -77
117 -120 6 -14 14 -70 18 -124 5 -88 9 -100 33 -125 27 -27 29 -27 193 -32
214 -6 204 3 204 -195 0 -126 -2 -146 -19 -166 l-19 -24 -574 -3 c-594 -3
-668 -1 -693 24 -21 22 -22 311 -1 340 13 17 31 19 185 24 214 6 210 3 222
148 5 55 13 112 19 127 44 117 199 179 315 126z m-972 -732 c7 -88 35 -147 94
-198 83 -74 60 -72 799 -69 l659 3 54 30 c95 52 141 133 141 247 l0 58 298 0
c253 0 301 -2 320 -16 l22 -15 0 -347 0 -347 -153 -1 c-299 -1 -551 -87 -794
-270 l-97 -74 -299 0 -299 0 -29 -29 c-41 -41 -41 -98 0 -143 l29 -33 206 -3
c113 -2 206 -5 206 -8 0 -3 -23 -43 -52 -91 -85 -142 -140 -303 -173 -505 l-6
-38 -73 0 c-87 0 -129 -13 -150 -45 -24 -37 -20 -99 8 -132 23 -26 30 -28 118
-31 l94 -4 12 -96 c20 -167 76 -340 155 -479 l36 -63 -172 0 c-152 0 -175 -2
-201 -19 -62 -41 -86 -121 -47 -160 35 -35 88 -41 347 -41 l251 0 24 -26 c31
-34 169 -141 234 -182 196 -122 448 -192 696 -192 l129 0 0 -142 c0 -118 -3
-145 -17 -160 -15 -17 -75 -18 -1492 -18 -812 0 -1481 4 -1487 8 -34 22 -34
31 -34 1852 l0 1801 25 24 24 25 294 0 294 0 6 -71z m3412 -761 c8 -44 14 -49
73 -63 24 -5 44 -14 45 -20 3 -14 -82 -55 -113 -55 -44 0 -60 20 -66 80 -4 45
-1 61 16 89 25 39 35 32 45 -31z m-870 -122 c115 -30 291 -114 380 -181 33
-25 61 -49 63 -53 1 -5 -44 -51 -100 -104 l-103 -95 -89 53 c-323 195 -734
156 -1009 -96 -212 -195 -313 -491 -263 -770 36 -202 161 -407 319 -526 141
-106 295 -162 472 -171 386 -20 722 213 847 587 31 91 32 101 32 260 1 161 0
167 -33 263 -18 53 -53 129 -77 168 -24 39 -44 74 -44 78 0 5 42 52 93 106 59
61 98 95 105 91 7 -4 34 -40 61 -79 191 -283 245 -604 156 -933 -156 -575
-747 -937 -1335 -818 -262 53 -544 244 -698 472 -65 95 -139 256 -168 367 -32
123 -44 332 -24 453 61 381 316 712 670 868 52 23 136 51 185 62 50 12 99 23
110 26 11 3 94 3 185 2 140 -3 180 -7 265 -30z m-73 -488 c65 -24 168 -83 168
-97 0 -3 -40 -46 -89 -95 l-89 -88 -58 22 c-124 46 -252 35 -356 -32 -63 -40
-105 -89 -142 -168 -28 -58 -31 -74 -31 -157 1 -87 3 -96 40 -170 32 -61 53
-88 100 -126 170 -136 423 -108 535 61 68 103 90 268 50 382 l-19 55 92 93 92
93 26 -31 c68 -81 109 -213 109 -356 0 -188 -66 -341 -203 -470 -208 -196
-498 -234 -752 -101 -94 50 -213 174 -263 274 -100 202 -95 425 14 620 77 139
246 269 401 308 93 23 289 14 375 -17z m-193 -445 c-7 -10 -34 -41 -60 -69
-55 -59 -67 -99 -45 -143 19 -37 44 -51 87 -51 28 0 44 11 101 69 37 38 69 66
72 63 13 -13 5 -89 -14 -126 -33 -67 -119 -113 -190 -100 -136 25 -201 162
-134 284 32 59 82 89 148 90 45 0 47 -1 35 -17z"/>
<path d="M4856 6689 c-15 -12 -106 -116 -203 -231 l-175 -209 -103 100 c-94
93 -105 101 -141 101 -48 0 -82 -22 -100 -65 -25 -60 -7 -88 148 -241 79 -78
154 -147 167 -154 34 -18 83 -4 118 33 51 53 414 490 434 522 30 47 25 91 -15
131 -41 41 -89 46 -130 13z"/>
<path d="M4863 5845 c-11 -8 -98 -108 -193 -222 -95 -115 -177 -212 -182 -218
-5 -5 -47 29 -106 88 -77 77 -105 99 -133 103 -72 12 -139 -56 -123 -124 7
-30 271 -304 316 -328 36 -19 67 -18 99 4 15 9 107 114 206 232 290 349 273
325 273 374 0 38 -5 48 -35 75 -40 35 -86 41 -122 16z"/>
<path d="M4859 4982 c-15 -9 -106 -113 -204 -230 l-177 -213 -90 95 c-94 101
-127 120 -182 105 -84 -24 -102 -105 -40 -181 47 -56 201 -210 249 -248 39
-31 89 -39 124 -20 16 8 329 376 439 515 38 48 49 94 32 134 -24 58 -97 79
-151 43z"/>
</g>
</svg>
