<?xml version="1.0" standalone="no"?>
<!DOCTYPE svg PUBLIC "-//W3C//DTD SVG 20010904//EN"
 "http://www.w3.org/TR/2001/REC-SVG-20010904/DTD/svg10.dtd">
<svg version="1.0" xmlns="http://www.w3.org/2000/svg"
 width="1166.000000pt" height="1164.000000pt" viewBox="0 0 1166.000000 1164.000000"
 preserveAspectRatio="xMidYMid meet">

<g transform="translate(0.000000,1164.000000) scale(0.100000,-0.100000)"
fill="#000000" stroke="none">
<path d="M5575 8109 c-143 -38 -440 -117 -660 -175 -709 -188 -917 -244 -933
-253 -10 -5 -28 -21 -42 -36 l-25 -27 -3 -1026 c-2 -730 0 -1059 8 -1136 44
-410 243 -795 549 -1061 91 -80 237 -179 1046 -711 267 -175 282 -184 329
-184 48 0 64 10 630 382 320 209 617 409 661 443 82 64 229 208 286 280 153
195 240 375 317 660 l26 100 4 1126 3 1127 -26 30 c-32 38 -32 38 -505 162
-212 56 -466 123 -565 150 -352 93 -790 208 -815 213 -14 3 -136 -24 -285 -64z
m520 -279 c88 -23 311 -82 495 -131 184 -49 463 -123 620 -165 157 -41 289
-79 293 -83 5 -5 6 -449 4 -987 -4 -934 -5 -984 -24 -1079 -52 -256 -153 -464
-317 -657 -124 -145 -159 -170 -1099 -787 -120 -79 -223 -141 -230 -138 -12 5
-154 97 -647 422 -140 92 -292 192 -337 221 -355 232 -563 531 -645 929 -21
97 -21 133 -25 1092 l-4 991 33 7 c18 4 191 49 383 100 193 51 523 139 735
195 212 56 414 110 450 120 56 15 71 16 110 4 25 -7 117 -31 205 -54z"/>
<path d="M6664 6490 c-18 -7 -88 -69 -389 -345 -422 -387 -710 -645 -716 -643
-4 2 -119 109 -255 238 -135 129 -256 240 -268 247 -11 7 -42 12 -68 13 -93 0
-159 -97 -121 -179 12 -25 104 -120 273 -282 140 -134 280 -267 310 -296 94
-90 154 -94 243 -16 209 185 1159 1059 1167 1073 17 31 11 100 -10 135 -33 53
-108 79 -166 55z"/>
</g>
</svg>
