<?xml version="1.0" standalone="no"?>
<!DOCTYPE svg PUBLIC "-//W3C//DTD SVG 20010904//EN"
 "http://www.w3.org/TR/2001/REC-SVG-20010904/DTD/svg10.dtd">
<svg version="1.0" xmlns="http://www.w3.org/2000/svg"
 width="1076.000000pt" height="1070.000000pt" viewBox="0 0 1076.000000 1070.000000"
 preserveAspectRatio="xMidYMid meet">

<g transform="translate(0.000000,1070.000000) scale(0.100000,-0.100000)"
fill="#000000" stroke="none">
<path d="M3695 7490 c-209 -33 -378 -179 -447 -385 -22 -67 -23 -81 -23 -385
0 -297 1 -319 22 -385 38 -122 120 -235 215 -302 l38 -26 0 -1277 c0 -1415 -4
-1327 66 -1408 108 -126 310 -126 418 0 61 71 66 100 66 392 l0 261 48 -73
c112 -168 267 -321 437 -432 501 -326 1149 -326 1650 0 170 111 325 264 437
432 l48 73 0 -281 0 -280 28 -55 c90 -178 334 -178 425 0 l27 55 0 1295 0
1296 47 25 c67 35 182 154 220 225 17 33 41 92 54 130 22 68 23 82 27 528 3
451 3 458 -18 502 -16 32 -32 49 -64 64 -81 40 -195 19 -239 -43 -21 -30 -22
-41 -27 -326 l-5 -295 -27 -3 c-16 -2 -29 -2 -30 0 -1 2 -4 139 -7 305 l-6
302 -30 31 c-36 37 -93 54 -163 47 -62 -7 -95 -25 -122 -70 -19 -30 -20 -52
-20 -312 0 -154 -4 -286 -9 -293 -4 -8 -19 -12 -32 -10 l-24 3 -5 295 c-4 209
-9 301 -17 317 -39 67 -163 94 -245 55 -84 -41 -83 -32 -86 -491 -2 -222 2
-442 7 -490 17 -158 71 -271 182 -381 36 -36 86 -76 112 -90 l47 -25 0 -250 0
-250 -47 70 c-58 88 -158 208 -217 263 -25 23 -100 124 -167 223 l-121 181
-44 -66 c-24 -36 -48 -66 -53 -66 -4 0 -41 14 -82 31 -183 75 -372 112 -579
112 -201 0 -378 -33 -557 -104 -52 -20 -91 -29 -132 -29 -240 0 -422 -141
-474 -369 -8 -34 -24 -72 -34 -84 -11 -12 -41 -53 -67 -92 l-46 -70 0 252 0
251 33 21 c88 55 182 185 220 306 21 66 22 88 22 375 0 332 -4 365 -57 478
-34 73 -126 176 -198 222 -101 65 -260 99 -375 80z m225 -159 c110 -42 196
-128 242 -241 21 -52 23 -72 26 -338 2 -180 -1 -301 -8 -335 -26 -128 -103
-235 -214 -297 l-56 -32 0 -456 c0 -361 -3 -467 -14 -503 -33 -110 -50 -244
-48 -404 0 -137 5 -177 28 -280 l28 -120 3 -436 3 -437 -26 -31 c-67 -80 -151
-80 -218 -1 l-26 32 0 1318 0 1318 -56 32 c-105 59 -189 172 -213 288 -18 86
-15 564 5 637 38 147 148 259 294 300 71 19 177 13 250 -14z m2610 -243 c0
-243 2 -277 19 -313 47 -104 169 -137 257 -70 67 51 69 59 72 373 l3 282 30 0
29 0 0 -252 c1 -270 6 -325 37 -367 44 -59 133 -86 200 -60 42 15 92 68 103
109 5 19 10 155 10 303 l0 267 35 0 35 0 0 -419 c0 -243 -4 -441 -10 -472 -27
-141 -124 -268 -261 -339 l-79 -41 0 -1333 0 -1333 -24 -26 c-44 -48 -102 -48
-150 -1 l-26 27 2 451 c3 426 4 456 25 542 50 204 50 444 0 648 -21 86 -22
115 -25 558 l-2 467 -80 42 c-91 47 -174 129 -216 211 -49 97 -54 149 -54 601
l0 417 35 0 35 0 0 -272z m-1240 -1576 l0 -607 -134 -134 -134 -134 -7 44 c-4
24 -12 53 -17 64 -16 31 -60 75 -90 91 -28 14 -28 15 -28 125 l0 110 102 177
c161 282 163 286 163 422 0 112 -1 117 -37 191 -27 55 -54 92 -98 132 -33 31
-60 58 -60 61 0 8 175 46 252 55 40 5 76 9 81 10 4 0 7 -272 7 -607z m249 593
c83 -8 225 -45 328 -84 l82 -32 -128 -193 c-71 -107 -139 -220 -151 -252 -28
-73 -38 -213 -20 -293 38 -170 175 -311 345 -356 164 -42 324 -1 449 116 74
68 119 148 145 251 l18 73 32 -85 c168 -434 119 -894 -137 -1278 l-55 -84
-509 509 -508 508 0 608 0 607 23 -4 c12 -3 51 -8 86 -11z m733 -342 c174
-261 192 -303 185 -423 -5 -94 -34 -157 -102 -226 -72 -72 -142 -97 -255 -92
-66 4 -96 10 -135 30 -136 71 -211 223 -184 373 6 32 17 73 26 90 14 29 305
474 310 475 2 0 71 -102 155 -227z m-1441 190 c104 -47 181 -164 182 -277 1
-86 -12 -116 -136 -333 l-110 -193 -96 0 -96 0 -109 191 c-60 104 -115 207
-122 227 -18 52 -17 149 3 208 23 68 119 164 188 187 72 24 233 19 296 -10z
m-488 -674 l117 -205 0 -112 0 -111 -27 -15 c-64 -33 -103 -101 -103 -179 0
-45 6 -63 33 -103 18 -28 49 -56 72 -68 53 -27 138 -27 195 2 41 20 45 20 74
5 17 -9 55 -21 84 -27 l52 -11 -283 -283 -284 -283 -55 83 c-104 157 -169 311
-210 501 -17 82 -22 135 -22 267 0 185 19 297 75 457 49 139 143 315 158 297
4 -5 60 -102 124 -215z m397 -387 l0 -128 61 -29 c66 -32 84 -54 75 -91 -15
-60 -91 -55 -156 11 l-43 44 -49 -44 c-70 -63 -129 -69 -158 -15 -18 34 3 63
69 94 l61 30 0 121 c0 67 3 125 7 128 3 4 35 7 70 7 l63 0 0 -128z m1121 -614
l492 -492 -70 -66 c-80 -75 -204 -160 -311 -214 -85 -43 -275 -109 -300 -104
-10 2 21 34 91 91 119 98 144 127 184 212 24 52 28 72 28 156 0 90 -2 99 -38
171 -59 120 -155 192 -291 219 -54 11 -149 4 -198 -16 -47 -19 8 135 87 241 7
10 -2 26 -35 59 -24 25 -48 45 -52 45 -4 0 -29 -31 -56 -70 -47 -67 -83 -156
-97 -243 -5 -31 -10 -37 -23 -32 -52 20 -139 27 -200 16 -132 -24 -230 -98
-289 -219 -36 -72 -38 -81 -38 -171 0 -84 4 -104 28 -156 40 -85 65 -114 184
-212 70 -57 101 -89 91 -91 -25 -5 -215 61 -300 104 -107 54 -231 139 -311
214 l-70 66 492 492 c270 271 496 492 501 492 5 0 231 -221 501 -492z m-573
-198 l72 -33 73 34 c61 28 83 33 147 33 90 1 138 -21 197 -88 83 -94 85 -233
6 -325 -33 -39 -305 -271 -317 -271 -4 0 -29 21 -56 46 l-50 47 -50 -47 c-27
-25 -52 -46 -56 -46 -12 0 -284 232 -317 271 -79 92 -77 231 6 325 89 101 201
118 345 54z"/>
<path d="M3700 7211 c-71 -23 -140 -82 -176 -151 -17 -32 -19 -61 -19 -320 l0
-285 29 -53 c51 -92 137 -142 240 -142 113 0 196 52 246 154 l31 63 -3 274
c-3 244 -5 278 -22 309 -26 50 -84 108 -131 132 -43 23 -152 33 -195 19z m141
-146 c16 -9 39 -30 49 -48 18 -29 20 -52 20 -284 l0 -252 -31 -35 c-57 -65
-145 -67 -204 -6 l-30 31 -3 254 c-3 217 -1 259 13 285 32 63 120 88 186 55z"/>
<path d="M6190 5398 c0 -61 -21 -112 -61 -150 l-39 -38 30 -60 31 -61 28 20
c92 66 141 156 141 261 l0 60 -65 0 -65 0 0 -32z"/>
<path d="M4634 5890 l-47 -60 -40 32 -39 32 -44 -50 -44 -49 40 -36 40 -37
-40 -50 c-22 -27 -40 -54 -40 -60 0 -11 84 -82 97 -82 5 0 26 23 47 50 21 28
41 50 44 50 3 0 13 -7 23 -16 17 -15 16 -19 -32 -78 l-50 -61 48 -42 c26 -24
51 -43 56 -43 4 0 28 27 53 60 l47 59 28 -20 c16 -11 31 -24 34 -29 11 -18 23
-11 65 40 l41 49 -35 32 c-20 17 -36 35 -36 39 0 4 18 30 40 58 l40 50 -47 41
c-27 22 -52 41 -58 41 -5 -1 -27 -23 -49 -51 -39 -51 -52 -56 -70 -27 -7 12 1
29 38 74 l47 59 -48 43 c-26 23 -51 42 -55 42 -3 0 -28 -27 -54 -60z"/>
<path d="M5075 3998 c-40 -47 -55 -89 -55 -153 0 -64 20 -118 58 -158 l26 -27
47 46 48 47 -22 29 c-12 16 -21 43 -21 63 0 20 9 47 21 63 l22 29 -48 47 -48
47 -28 -33z"/>
</g>
</svg>
